<svg xmlns="http://www.w3.org/2000/svg" viewBox="0 0 180 40" width="180" height="40">
  <g transform="translate(0, 4)">
    <path d="M8 6 L8 26" stroke="#FFFFFF" stroke-width="3" stroke-linecap="round" />
    <path d="M24 6 L24 26" stroke="#FFFFFF" stroke-width="3" stroke-linecap="round" />
    <path d="M8 18 Q 16 8 24 18" stroke="#FFFFFF" stroke-width="3" stroke-linecap="round" fill="none" />
    <circle cx="8" cy="6" r="3" fill="#FFFFFF" />
    <circle cx="8" cy="26" r="3" fill="#FFFFFF" />
    <circle cx="24" cy="6" r="3" fill="#FFFFFF" />
    <circle cx="24" cy="26" r="3" fill="#FFFFFF" />
    <circle cx="16" cy="13" r="3" fill="#FFFFFF" />
  </g>
  <g fill="#FFFFFF">
    <path d="M39.77 28.00L42.22 28.00L42.22 20.87L50.15 20.87L50.15 28.00L52.61 28.00L52.61 12.00L50.15 12.00L50.15 18.76L42.22 18.76L42.22 12.00L39.77 12.00Z"/>
    <path d="M60.52 28.25C63.90 28.25 66.14 25.77 66.14 22.06C66.14 18.32 63.90 15.84 60.52 15.84C57.14 15.84 54.91 18.32 54.91 22.06C54.91 25.77 57.14 28.25 60.52 28.25ZM60.52 26.25C58.35 26.25 57.32 24.34 57.32 22.06C57.32 19.75 58.35 17.84 60.52 17.84C62.71 17.84 63.74 19.76 63.74 22.06C63.74 24.34 62.71 26.25 60.52 26.25Z"/>
    <path d="M72.57 28.25C75.50 28.25 77.52 26.70 77.52 24.51C77.52 22.85 76.47 21.77 74.24 21.27L72.31 20.84C70.99 20.54 70.45 20.06 70.45 19.27C70.45 18.37 71.44 17.71 72.74 17.71C74.16 17.71 74.83 18.46 75.15 19.30L77.26 18.84C76.75 17.06 75.32 15.84 72.72 15.84C70 15.84 68.07 17.27 68.07 19.42C68.07 21.14 69.14 22.23 71.38 22.74L73.39 23.20C74.53 23.46 75.08 23.95 75.08 24.72C75.08 25.61 74.11 26.34 72.59 26.34C71.19 26.34 70.28 25.76 69.95 24.50L67.72 24.96C68.15 27.09 69.96 28.25 72.57 28.25Z"/>
    <path d="M84.74 15.99L82.35 15.99L82.35 13.14L79.98 13.14L79.98 15.99L78.23 15.99L78.23 17.92L79.98 17.92L79.98 24.95C79.98 26.99 81.24 28.16 83.42 28.16C83.97 28.16 84.57 28.09 85.08 27.92L84.66 26.03C84.37 26.09 83.91 26.16 83.66 26.16C82.72 26.16 82.35 25.73 82.35 24.76L82.35 17.92L84.74 17.92Z"/>
    <path d="M92.56 28.24C95.48 28.24 97.57 25.91 97.57 22.03C97.57 18.12 95.44 15.84 92.56 15.84C90.31 15.84 89.51 17.21 89.09 17.95L88.96 17.95L88.96 12.00L86.60 12.00L86.60 28.00L88.89 28.00L88.89 26.12L89.09 26.12C89.51 26.89 90.38 28.24 92.56 28.24ZM92.03 26.23C90.03 26.23 88.92 24.51 88.92 22.01C88.92 19.52 90.00 17.85 92.03 17.85C94.12 17.85 95.16 19.65 95.16 22.01C95.16 24.39 94.08 26.23 92.03 26.23Z"/>
    <path d="M103.06 28.27C105.00 28.27 106.14 27.29 106.60 26.36L106.72 26.36L106.72 28.00L109.01 28.00L109.01 20.03C109.01 16.56 106.25 15.84 104.31 15.84C102.18 15.84 100.16 16.68 99.34 18.83L101.56 19.41C101.90 18.59 102.78 17.77 104.35 17.77C105.85 17.77 106.65 18.54 106.65 19.87L106.65 19.94C106.65 20.78 105.73 20.77 103.62 21.02C101.35 21.28 99.00 21.88 99.00 24.61C99.00 26.97 100.77 28.27 103.06 28.27ZM103.58 26.37C102.26 26.37 101.32 25.78 101.32 24.64C101.32 23.41 102.41 22.95 103.75 22.77C104.48 22.67 106.30 22.48 106.66 22.14L106.66 23.67C106.66 25.08 105.51 26.37 103.58 26.37Z"/>
    <path d="M116.00 28.25C118.93 28.25 120.95 26.70 120.95 24.51C120.95 22.85 119.90 21.77 117.67 21.27L115.74 20.84C114.42 20.54 113.88 20.06 113.88 19.27C113.88 18.37 114.87 17.71 116.17 17.71C117.59 17.71 118.26 18.46 118.57 19.30L120.69 18.84C120.17 17.06 118.75 15.84 116.15 15.84C113.43 15.84 111.50 17.27 111.50 19.42C111.50 21.14 112.57 22.23 114.80 22.74L116.82 23.20C117.96 23.46 118.51 23.95 118.51 24.72C118.51 25.61 117.54 26.34 116.02 26.34C114.62 26.34 113.71 25.76 113.38 24.50L111.15 24.96C111.58 27.09 113.39 28.25 116.00 28.25Z"/>
    <path d="M128.21 28.25C130.78 28.25 132.62 26.99 133.19 25.12L130.96 24.60C130.55 25.71 129.56 26.29 128.24 26.29C126.27 26.29 124.94 25.04 124.85 22.72L133.37 22.72L133.37 21.88C133.37 17.55 130.75 15.84 128.01 15.84C124.65 15.84 122.48 18.39 122.48 22.08C122.48 25.81 124.67 28.25 128.21 28.25ZM124.86 20.96C124.99 19.23 126.13 17.80 128.02 17.80C129.84 17.80 130.86 19.07 131.03 20.96Z"/>
  </g>
</svg>
