<svg xmlns="http://www.w3.org/2000/svg" fill="none" viewBox="0.5 10 585.2 80.35"><g clip-path="url(#a)"><path d="M64.316 90.342h-47.29C7.909 90.342.5 82.932.5 73.816v-47.29C.5 17.409 7.91 10 17.026 10h47.29c9.117 0 16.526 7.41 16.526 16.526v47.29c0 9.117-7.41 16.526-16.526 16.526Z" fill="white" style="--darkreader-inline-fill:var(--darkreader-background-ef3346, #aa0d1d)"/><path d="M29.13 45.575c0-.66-.464-1.124-1.123-1.124h-7.798c-.66 0-1.123.464-1.123 1.124v7.797c0 .66.464 1.123 1.123 1.123h7.798c.66 0 1.123-.463 1.123-1.123v-7.797ZM37.471 61.713h7.797c.62 0 1.124.504 1.124 1.123v7.798c0 .62-.504 1.123-1.124 1.123h-7.797c-.62 0-1.123-.504-1.123-1.123v-7.797c0-.62.504-1.124 1.123-1.124Z" fill="white" style="--darkreader-inline-fill:var(--darkreader-text-191e3b, #cdc9c3)"/><path d="M37.471 44.447h7.797c.62 0 1.124.504 1.124 1.124v7.797c0 .62-.504 1.123-1.124 1.123h-7.797c-.62 0-1.123-.503-1.123-1.123V45.57c0-.62.504-1.124 1.123-1.124Z" fill="white" style="--darkreader-inline-fill:var(--darkreader-text-fddb32, #fddd3d)"/><path d="M66.372 29.589a5.117 5.117 0 0 0-5.123-5.122H22.844c-.776 0-1.24.272-1.707.776l-7.722 7.72c-.583.584-.196 1.436.66 1.436h42.4v42.4c0 .852.852 1.24 1.436.66l7.72-7.721c.465-.464.777-.932.777-1.707V29.589h-.04.004ZM271.341 54.404c1.136-7.95 5.294-13.151 13.587-13.151s12.959 4.858 13.631 13.15h-27.218Zm13.775-20.969c-13.247 0-23.823 9.533-23.823 25.351s9.34 26.11 25.063 26.11c9.052 0 16.581-4.002 21.252-9.532.288-.288.384-.572.384-.856 0-.284-.096-.572-.384-.855l-4.387-4.29c-.288-.289-.571-.385-.855-.385-.284 0-.572.192-.856.48-3.619 3.907-8.293 7.245-15.058 7.245-9.865 0-14.615-6.077-15.339-14.866h36.595c.667 0 1.143-.48 1.143-1.144V58.79c-.008-14.483-8.773-25.35-23.735-25.35M158.654 16.758h-7.909c-.668 0-1.144.48-1.144 1.143v26.686h-32.116V17.901c0-.667-.476-1.143-1.143-1.143h-7.909c-.668 0-1.144.48-1.144 1.143V82.33c0 .668.476 1.144 1.144 1.144h7.909c.667 0 1.143-.48 1.143-1.144V53.55h32.116v28.78c0 .668.476 1.144 1.144 1.144h7.909c.668 0 1.143-.48 1.143-1.144V17.897c0-.667-.479-1.14-1.143-1.14ZM326.195 16.758h-7.626c-.667 0-1.143.48-1.143 1.143V82.33c0 .668.476 1.144 1.143 1.144h7.626c.667 0 1.143-.48 1.143-1.144V17.897c0-.667-.48-1.14-1.143-1.14ZM194.677 76.516c-10.576 0-16.202-7.91-16.202-17.346 0-9.437 5.622-17.346 16.202-17.346 10.58 0 16.202 7.91 16.202 17.346s-5.626 17.346-16.202 17.346Zm0-43.08c-14.199 0-26.111 10.484-26.111 25.73S180.478 84.9 194.677 84.9c14.198 0 26.11-10.484 26.11-25.734 0-15.25-11.912-25.73-26.11-25.73ZM486.458 76.516c-10.576 0-16.202-7.91-16.202-17.346 0-9.437 5.622-17.346 16.202-17.346 10.58 0 16.202 7.91 16.202 17.346s-5.626 17.346-16.202 17.346Zm0-43.08c-14.199 0-26.11 10.484-26.11 25.73S472.259 84.9 486.458 84.9s26.11-10.484 26.11-25.734c0-15.25-11.911-25.73-26.11-25.73ZM255.475 34.958h-12.388V18.84c0-.855-.855-1.24-1.431-.667l-7.725 7.72c-.48.48-.76.952-.76 1.716v7.35h-8.477c-.667 0-1.143.48-1.143 1.143v5.338c0 .668.476 1.144 1.143 1.144h8.485v26.018c0 9.052 4.291 14.866 13.343 14.866h8.957c.664 0 1.143-.475 1.143-1.143v-6.098c0-.668-.475-1.144-1.143-1.144h-6.29c-4.482 0-6.098-1.715-6.098-6.193V42.587h12.392c.664 0 1.143-.475 1.143-1.143v-5.338c0-.668-.479-1.14-1.147-1.14" fill="white" style="--darkreader-inline-fill:var(--darkreader-background-191e3b, #14182f)"/><path d="M395.819 73.788h-7.645c-.76 0-1.276.504-1.276 1.276v7.133c0 .76.516 1.275 1.276 1.275h7.645c.76 0 1.276-.503 1.276-1.275v-7.133c0-.772-.504-1.276-1.276-1.276Z" fill="white" style="--darkreader-inline-fill:var(--darkreader-text-191e3b, #cdc9c3)"/><path d="M357.739 54.4c-7.813-1.715-11.628-3.051-11.628-7.054 0-4.002 3.431-6.097 9.532-6.097 5.434 0 9.721 2.479 12.488 6.385.384.572 1.047.668 1.623.288l5.146-3.338c.572-.384.76-.952.38-1.62-4.194-6.386-10.864-9.532-19.537-9.532-9.724 0-18.393 4.762-18.393 14.486 0 9.725 8.101 12.863 18.773 15.155 7.525 1.619 10.864 2.858 10.864 7.34 0 4.483-3.906 6.674-10.484 6.674-6.577 0-11.248-2.667-14.295-7.149-.383-.668-1.047-.856-1.719-.384l-5.146 3.623c-.572.384-.668.951-.384 1.523 3.907 6.578 11.152 10.292 21.444 10.292 12.863 0 20.301-6.385 20.301-14.962 0-10.012-8.289-13.255-18.961-15.634M451.115 68.459l-4.391-2.056-.036-.016-.035-.011a2.362 2.362 0 0 0-.824-.157c-.464 0-1.328.169-1.887 1.288-2.891 5.99-7.278 8.773-13.803 8.773-8.781 0-14.455-6.67-14.455-16.99 0-10.32 5.538-17.273 14.455-17.273 6.473 0 10.488 2.45 13.419 8.188.388.876 1.111 1.4 1.943 1.4.272 0 .548-.06.816-.172l.02-.008.02-.008 4.498-2.155c.936-.412 1.699-1.42 1.06-3.023-1.344-3.39-3.955-6.474-7.35-8.689-3.966-2.587-8.952-3.954-14.418-3.954-6.802 0-13.011 2.587-17.494 7.281-4.498 4.714-6.977 11.288-6.977 18.51 0 14.67 10.292 25.318 24.471 25.318 15.654 0 20.908-10.257 22.147-13.4.456-1.21-.02-2.347-1.175-2.838l-.004-.008ZM581.266 38.418c-2.971-3.035-7.341-4.639-12.643-4.639-6.697 0-11.496 3.519-14.107 7.254-2.175-3.751-6.525-7.254-13.159-7.254-4.77 0-8.509 1.576-11.352 4.794v-1.287c0-1.196-.899-2.095-2.095-2.095h-5.358c-1.195 0-2.095.9-2.095 2.095v44.096c0 1.195.9 2.095 2.095 2.095h5.546c1.196 0 2.095-.9 2.095-2.096V53.46c0-3.443.888-11.444 9.093-11.444 6.058 0 9.001 3.191 9.001 9.753v29.616c0 1.196.899 2.096 2.095 2.096h5.454c1.195 0 2.095-.9 2.095-2.096V53.464c0-4.274 1.22-11.444 9.377-11.444 5.945 0 8.716 3.1 8.716 9.753v29.616c0 1.196.9 2.096 2.095 2.096h5.454c1.196 0 2.096-.9 2.096-2.096V50.645c0-5.05-1.524-9.277-4.403-12.215v-.012Z" fill="white" style="--darkreader-inline-fill:var(--darkreader-background-191e3b, #14182f)"/></g><defs><clipPath id="a"><path fill="white" transform="translate(.5 10)" style="--darkreader-inline-fill:var(--darkreader-text-ffffff, #e8e6e3)" d="M0 0h584.982v80.37H0z"/></clipPath></defs></svg>